<svg height="16" viewBox="0 0 16 16" width="16" xmlns="http://www.w3.org/2000/svg"><g fill="none" fill-rule="evenodd"><path d="m1 16h15v-7h-15z" fill="#f26522" fill-opacity=".7"/><path d="m7 1-4 4h4z" fill="#9aa7b0" fill-opacity=".8"/><path d="m8 1v5h-5v2h10v-7z" fill="#9aa7b0" fill-opacity=".8"/><g fill="#231f20" fill-opacity=".7"><path d="m1.39509277 3.58770752c.22930909.2501831.44273584.41229248.89173584.41229248.52635498 0 .71317139-.41229248.71317139-.70239258v-3.29760742h1v3.58770752c0 .73193359-.67329102 1.41229248-1.55 1.41229248-.821 0-1.3-.23735889-1.65-.68035889z" transform="translate(1 10)"/><path d="m1.9 2.5c.664 0 1.1-.11560059 1.1-.75s-.443-.75-1.1-.75h-.9v1.5zm-1.9-2.5h1.971c1.171 0 2.029.642 2.029 1.65 0 1.63582764-1.029 1.85-2.128 1.85h-.872v1.5h-1z" transform="translate(10 10)"/><path d="m.97276797 1.50152588c0-.36846924.31123203-.50152588.87223203-.50152588h1.155v-1c-.73733333 0-1.11733333 0-1.14 0-1.082 0-1.86.45916748-1.86 1.45 0 .86452637.41955566 1.24049072 1.47125244 1.46607666.77033625.16523491 1.02490256.31255273 1.02490256.63192334s-.35772727.452-1.02490256.452c-.01066667 0-.40108415 0-1.17125244 0v1h1.17125244c2.02874756 0 2.02874756-1 2.02874756-1.452 0-.63192334-.47973633-1.12728467-1.34130859-1.40114941-.86157227-.27386475-1.18592344-.27685547-1.18592344-.64532471z" transform="translate(6 10)"/></g></g></svg>